<svg viewBox="0 0 11.493011 11.209466" xmlns="http://www.w3.org/2000/svg">
  <path id="logo" d="M 5.74604,0 C 2.5728,0 0,2.57281 0,5.74675 c 0,2.53894 1.64641,4.69265 3.92994,5.45289 0.28751,0.0526 0.39229,-0.12489 0.39229,-0.27729 0,-0.13617 -0.005,-0.49777 -0.008,-0.97719 C 2.71579,10.29229 2.37854,9.17469 2.37854,9.17469 2.11713,8.51112 1.74036,8.33437 1.74036,8.33437 1.2186,7.97772 1.77986,7.98477 1.77986,7.98477 2.35665,8.02567 2.66004,8.57709 2.66004,8.57709 3.17263,9.45515 4.00518,9.2015 4.33256,9.05475 4.38476,8.68327 4.53294,8.42998 4.69733,8.2864 3.42134,8.14141 2.07972,7.64822 2.07972,5.44618 c 0,-0.62724 0.22402,-1.14017 0.59161,-1.54199 -0.0593,-0.14534 -0.25647,-0.72954 0.0561,-1.52082 0,0 0.4826,-0.15452 1.58045,0.58914 0.45826,-0.12736 0.95003,-0.19121 1.43863,-0.19333 0.48789,0.002 0.97966,0.066 1.43862,0.19333 1.09714,-0.74366 1.57868,-0.58914 1.57868,-0.58914 0.31362,0.79128 0.11642,1.37548 0.0572,1.52082 0.3683,0.40182 0.59091,0.91475 0.59091,1.54199 0,2.20769 -1.34373,2.69346 -2.62396,2.83563 0.20637,0.17745 0.39017,0.52811 0.39017,1.06433 0,0.768 -0.007,1.38783 -0.007,1.57621 0,0.15381 0.10337,0.33267 0.39511,0.27658 C 9.84801,10.43728 11.49301,8.28499 11.49301,5.74675 11.49301,2.57281 8.91985,0 5.74591,0" fill="#fff" />
</svg>
